<?xml version="1.0" standalone="no"?><!DOCTYPE svg PUBLIC "-//W3C//DTD SVG 1.1//EN" "http://www.w3.org/Graphics/SVG/1.1/DTD/svg11.dtd">
<svg class="icon"
     viewBox="0 0 1024 1024"
     version="1.1"
     xmlns="http://www.w3.org/2000/svg"
     width="200"
     height="200">
    <path
        d="M444.2624 676.352m-334.4256 0a334.4256 334.4256 0 1 0 668.8512 0 334.4256 334.4256 0 1 0-668.8512 0Z"
        ></path>
    <path
        d="M725.8752 801.472c32.2048-54.3232 19.8528-139.7888 14.4256-168.576-2.0992-9.6512-12.9408-9.8304-12.9408-9.8304h-55.1936c-12.6464-0.2944-5.0176 12.6848-5.0176 12.6848 40.4352 47.2832 26.6624 131.0976 19.3408 163.392 0 0-4.6848 13.0304 6.4128 12.7104l19.904-0.9984c-0.0128 0 9.1136-0.6144 13.0688-9.3824z"
        fill="#FFFFFF"
        ></path>
    <path
        d="M567.5264 417.8176l-3.6992-2.2272c2.0864-3.4816 6.1312-14.464 11.712-29.6704 16.1024-43.8144 45.0176-122.4704 84.992-181.6064-44.544-27.8656-77.1968-50.0992-77.6832-50.432l2.432-3.5712c0.4864 0.3328 33.152 22.5792 77.696 50.432 26.9568-38.8992 58.8032-68.608 95.0528-73.0496 40.9216-5.0048 82.5216 23.1936 123.6608 83.8272 36.8384 54.3104 48.3456 87.104 35.1744 100.2368-10.0224 9.9968-33.28 7.6288-71.1168-7.232-29.248-11.4816-67.0208-30.4512-112.2688-56.384-24.1792-13.8624-47.9616-28.2624-69.2352-41.5232-6.144 9.088-12.2624 18.9824-18.3552 29.696-30.464 53.6192-52.8896 114.6368-66.2912 151.0912-5.888 16.0128-9.7792 26.5856-12.0704 30.4128z m99.136-214.7584c21.1968 13.2096 44.8896 27.5584 68.9664 41.3568 127.36 72.9856 167.1808 75.2512 178.176 64.2944 7.7696-7.7568 7.8976-30.4896-35.6992-94.7584-40.1536-59.1872-80.3712-86.7712-119.552-81.9712-30.9376 3.7888-61.7472 27.648-91.8912 71.0784z"
        fill="#231815"
        ></path>
    <path
        d="M684.9152 357.824l-36.608 65.5872c-3.1872 5.4016-12.9408 2.8928-12.9408 2.8928l-166.1696-69.5168c-4.5568-2.2016-2.1632-7.6928-2.1632-7.6928l33.0496-73.9584s2.9568-6.3232 12.6464-6.528c33.9328 1.1392 147.072 9.856 173.376 75.0336-0.0128-0.0128 1.4848 9.7536-1.1904 14.1824z"
        fill="#CE2420"
        ></path>
    <path
        d="M617.0368 398.6432c41.5744-3.9936 53.7728-48.7936 56.3456-61.0048 0.1024-2.8416-2.8544-4.1984-2.8544-4.1984l-14.6176-4.8768c-3.2768-0.3968-3.8272 1.7536-3.8272 1.7536 0.6272 30.2848-32.4992 49.8048-44.0448 55.68 0 0-3.8784 1.8432-1.3312 4.9664l4.5824 5.504s1.9968 2.752 5.7472 2.176z"
        fill="#FFFFFF"
        ></path>
    <path
        d="M471.04 208.4224l76.8-39.68-24.32 74.24 52.48-58.88 62.72 44.8-32-62.72 51.2 6.4-34.56-30.72 47.36-23.04-52.48-7.68 47.36-37.12-56.32 12.8 11.52-61.44-48.64 53.76-12.8-35.84-6.4 40.96-66.56-44.8 39.68 58.88-51.2-3.84 40.96 32-71.68 14.08 79.36 12.8z"
        fill="#F3B042"
        ></path>
    <path
        d="M525.44 150.8224l-35.84 37.12 55.04-23.04-14.08 49.92 35.84-37.12 49.92 39.68-21.76-51.2 39.68 6.4-25.6-25.6 39.68-17.92-42.24-8.96 32-25.6-37.12 5.12 10.24-48.64-40.96 40.96-8.96-29.44-6.4 34.56-53.76-40.96 26.88 48.64-39.68-5.12 32 28.16-51.2 10.24z"
        fill="#FCEA85"
        ></path>
    <path
        d="M538.24 146.3424l-32 33.28 46.08-23.04-14.08 44.8 32-35.84 38.4 26.88-19.2-38.4 30.72 3.84-20.48-19.2 28.16-14.08-32-5.12 29.44-21.76-34.56 6.4 6.4-37.12-29.44 33.28-7.68-21.76-3.84 24.32-40.96-26.88 24.32 35.84-30.72-1.28 25.6 19.2-44.8 10.24z"
        fill="#FFFFFF"
        ></path>
</svg>