<?xml version="1.0" standalone="no"?><!DOCTYPE svg PUBLIC "-//W3C//DTD SVG 1.1//EN" "http://www.w3.org/Graphics/SVG/1.1/DTD/svg11.dtd">
<svg class="icon"
     viewBox="0 0 1024 1024"
     version="1.1"
     xmlns="http://www.w3.org/2000/svg"
     width="200"
     height="200">
    <path
        d="M512 448c0 64.3-30.3 114.1-66 148-33.4 30.3-79.4 46-132 46-104.7 0-188-85.3-188-194 0-51.5 15.7-90.9 44-120 27.1-26.8 61.8-33.5 102-32 0.6 0.3 1.6 0.6 3 1 29.1 3.7 48 28.2 48 46 0.4 3.3 0.2 5.8 0 8-0.6 25.4-21.4 45.9-47 46-12.7-0.1-23-10.4-23-23 0-12.8 10.3-23.1 23-23 3.9-0.1 7 3 7 7 0 3.8-3.1 6.9-7 7-5-0.1-9 3.9-9 9 0 4.9 4 8.9 9 9 18.2-0.1 33-14.9 33-33 0-18.3-14.8-34.1-33-34-0.7-0.1-1.4-0.2-2 0-28.7-0.4-54.7 10.5-74 29-21.8 21-34 52.3-34 91 0 81.9 65.9 146 149 146 42.3 0 78.9-11.8 105-35 27.8-24.5 43-61.7 43-111 0-3.4 49 9.8 49 12z"
        fill="#D2D2D2"
        ></path>
    <path
        d="M132.5 499.6C161.9 567 227.2 613 304 613c52.6 0 98.6-15.7 132-46 31-29.5 58-70.9 64.5-123.5 6.7 2 11.5 3.8 11.5 4.5 0 64.3-30.3 114.1-66 148-33.4 30.3-79.4 46-132 46-87.4 0-159.9-59.5-181.5-142.4z m68.6-192.8C222 297.5 245.8 295 272 296c0.6 0.3 1.6 0.6 3 1 6.8 0.9 13.1 2.9 18.7 5.7 3.4 5.3 5.3 11.7 5.3 18.3 0 1.5-0.1 3-0.3 4.5-5.9-5.8-13.9-9.5-22.7-9.5-0.7-0.1-1.4-0.2-2 0-28.7-0.4-54.7 10.5-74 29-21.8 21-34 52.3-34 91 0 11.4 1.3 22.5 3.7 33.1-8.8-18.7-13.7-39.8-13.7-62.1 0-38.7 12.2-70 34-91 3.5-3.3 7.2-6.4 11.1-9.2z m112.1 11.7c6.3 7.9 9.8 16.8 9.8 24.5 0.4 3.3 0.2 5.8 0 8-0.6 25.4-21.4 45.9-47 46-12.7-0.1-23-10.4-23-23 0-3.2 0.6-6.2 1.8-9 3.3 1.9 7.1 2.9 11.2 3 1.1 0 2.2 0 3.3-0.1-1.5 1.6-2.3 3.8-2.3 6.1 0 4.9 4 8.9 9 9 18.2-0.1 33-14.9 33-33 0-2.7-0.3-5.4-1-8 3-6 4.8-12.8 5-20 0.1-1.1 0.2-2.2 0.2-3.5z m-48.5 35.4c3.3-1.9 7.2-2.9 11.3-2.9 0.9 0 1.8 0.1 2.6 0.5-3.9 1.6-8.1 2.5-12.6 2.5-0.4 0-0.9 0-1.3-0.1z"
        fill="#A1A1A1"
        ></path>
    <path
        d="M180 337.8c-26.4 27.2-40 63.5-40 110.2 0 100.8 76.9 180 174 180 49.6 0 92.1-14.7 122.5-42.3 36.4-34.6 58.8-78.4 61.3-128.4-4-1.2-8.8-2.6-13.8-3.9-2.6-0.7-5.2-1.3-7.5-1.8-3 45-18.9 80.9-47.2 105.9C400.7 582.9 360.9 596 315 596c-90.9 0-163-70.5-163-160 0-41.8 13.3-77 38.3-101.1 7.9-7.6 16.8-14 26.4-19.1-14.3 4.5-26.3 11.7-36.7 22z m284.7 111.6zM276 365z m236 83c0 64.3-30.3 114.1-66 148-33.4 30.3-79.4 46-132 46-104.7 0-188-85.3-188-194 0-51.5 15.7-90.9 44-120 27.1-26.8 61.8-33.5 102-32 0.6 0.3 1.6 0.6 3 1 29.1 3.7 48 28.2 48 46 0.4 3.3 0.2 5.8 0 8-0.6 25.4-21.4 45.9-47 46-12.7-0.1-23-10.4-23-23 0-12.8 10.3-23.1 23-23 3.9-0.1 7 3 7 7 0 3.8-3.1 6.9-7 7-5-0.1-9 3.9-9 9 0 4.9 4 8.9 9 9 18.2-0.1 33-14.9 33-33 0-18.3-14.8-34.1-33-34-0.7-0.1-1.4-0.2-2 0-28.7-0.4-54.7 10.5-74 29-21.8 21-34 52.3-34 91 0 81.9 65.9 146 149 146 42.3 0 78.9-11.8 105-35 27.8-24.5 43-61.7 43-111 0-3.4 49 9.8 49 12z"
        fill="#1E1C1E"
        ></path>
    <path
        d="M315 505c-8.7 9.8-22.9 10.7-33 2-2.4-2.8-2.6-7.3 0-10 2.7-2.9 7.1-3.1 10 0 3.8 3.1 9.2 2.7 13-1 4-4.7 4.8-12.5 1-22-0.8-0.9-1.2-1.7-2-3-6.4-14.1-24.1-16.8-43-10-22.8 10.7-36.4 25-45 47-9.3 24.5-7.5 53.9 7 85 30.1 64.6 106 91.2 171 61 34.4-16.2 56.6-38.1 69-66 8.4-19.9 12.6-54.5 12-104h58c-0.8 60.4-6.6 103.7-17 130-15.2 37-51.1 73-93 93-82.7 38.1-187.2-3.8-227-90-19.5-40.9-21.5-78-10-112 11.6-30.9 36.7-46 69-59 28.5-7.7 50.6 1.2 58 15 8.1 11.4 11.2 34.5 2 44z"
        fill="#D2D2D2"
        ></path>
    <path
        d="M305.8 473.8c3-4.5 4.1-11 3.8-17.7 1.4 1.5 2.5 3.2 3.5 4.9 8.1 11.4 11.2 34.5 2 44-8.7 9.8-22.9 10.7-33 2-2.4-2.8-2.6-7.3 0-10 2.7-2.9 7.1-3.1 10 0 3.8 3.1 9.2 2.7 13-1 4-4.7 4.8-12.5 1-22-0.2-0.1-0.2-0.2-0.3-0.2z m-9.1-11.7c-8.6-6-21.8-6.1-35.7-1.1-22.8 10.7-36.4 25-45 47-6.8 17.8-7.7 38.2-2.1 60-0.7-1.3-1.3-2.6-1.9-4-14.5-31.1-16.3-60.5-7-85 0.8-2 1.6-3.9 2.4-5.7 12.6-11.6 28.9-19.8 47.6-27.3 16.1-4.4 30.1-3.4 40.6 0.7 2.1 6 2.3 11.3 1.1 15.4zM521.2 484H533c-0.8 60.4-6.6 103.7-17 130-15.2 37-51.1 73-93 93-82.7 38.1-187.2-3.8-227-90-4.8-10.1-8.5-20-11.3-29.6l0.3 0.6c39.8 86.2 144.3 128.1 227 90 41.9-20 77.8-56 93-93 8.6-21.9 14.1-55.5 16.2-101z"
        fill="#A1A1A1"
        ></path>
    <path
        d="M199.2 509.7c-10.6 31.4-7.9 64.8 9.5 101.3 36.7 79.7 133.1 118 208.4 83.3 38.7-18.6 72.1-51.9 86-85.6 8.9-22.5 14.2-59.7 15.7-110.8H489c-0.3 43.4-4.6 75.2-13.1 95.4-14.1 31.8-39.1 55.8-76 73.3-72.2 33.5-156.3 3.7-189.6-67.8-15.7-33.9-18.3-67.2-7.4-95.9 0.8-2 1.6-3.9 2.4-5.8-2.4 4-4.4 8.1-6.1 12.6z m82.9-2.8zM315 505c-8.7 9.8-22.9 10.7-33 2-2.4-2.8-2.6-7.3 0-10 2.7-2.9 7.1-3.1 10 0 3.8 3.1 9.2 2.7 13-1 4-4.7 4.8-12.5 1-22-0.8-0.9-1.2-1.7-2-3-6.4-14.1-24.1-16.8-43-10-22.8 10.7-36.4 25-45 47-9.3 24.5-7.5 53.9 7 85 30.1 64.6 106 91.2 171 61 34.4-16.2 56.6-38.1 69-66 8.4-19.9 12.6-54.5 12-104h58c-0.8 60.4-6.6 103.7-17 130-15.2 37-51.1 73-93 93-82.7 38.1-187.2-3.8-227-90-19.5-40.9-21.5-78-10-112 11.6-30.9 36.7-46 69-59 28.5-7.7 50.6 1.2 58 15 8.1 11.4 11.2 34.5 2 44z"
        fill="#1E1C1E"
        ></path>
    <path
        d="M529 479c0 64.3 30.3 114.1 66 148 33.4 30.3 79.4 46 132 46 104.7 0 188-85.3 188-194 0-51.5-15.7-90.9-44-120-27.1-26.8-61.8-33.5-102-32-0.6 0.3-1.6 0.6-3 1-29.1 3.7-48 28.2-48 46-0.4 3.3-0.2 5.8 0 8 0.6 25.4 21.4 45.9 47 46 12.7-0.1 23-10.4 23-23 0-12.8-10.3-23.1-23-23-3.9-0.1-7 3-7 7 0 3.8 3.1 6.9 7 7 5-0.1 9 3.9 9 9 0 4.9-4 8.9-9 9-18.2-0.1-33-14.9-33-33 0-18.3 14.8-34.1 33-34 0.7-0.1 1.4-0.2 2 0 28.7-0.4 54.7 10.5 74 29 21.8 21 34 52.3 34 91 0 81.9-65.9 146-149 146-42.3 0-78.9-11.8-105-35-27.8-24.5-43-61.7-43-111 0-3.4-49 9.8-49 12z"
        fill="#D2D2D2"
        ></path>
    <path
        d="M832.8 569.6C806.7 611 760 638 706 638c-42.3 0-78.9-11.8-105-35-27.8-24.5-43-61.7-43-111 0-1.9-14.9 1.3-28.2 4.9-0.5-5.8-0.8-11.8-0.8-17.9 0-2.2 49-15.4 49-12 0 49.3 15.2 86.5 43 111 26.1 23.2 62.7 35 105 35 42.1 0 79.8-16.5 106.8-43.4z m4-197.4C818 356 793.6 346.7 767 347c-0.6-0.2-1.3-0.1-2 0-6.8 0-13.1 2.1-18.3 5.8-0.2 0.1-0.5 0.1-0.7 0.2-9.9 1.3-18.7 5-25.9 10 5.7-15.6 22.5-32 45.9-35 1.4-0.4 2.4-0.7 3-1 40.2-1.5 74.9 5.2 102 32 28.3 29.1 44 68.5 44 120 0 53.5-20.2 101.4-53.2 136.2 21-31.3 33.2-69.5 33.2-111.2 0-51.5-15.7-90.9-44-120-4.5-4.5-9.3-8.4-14.2-11.8z m-104.2 2.3c-0.4 2.1-0.6 4.3-0.6 6.5 0 10.5 5 20 12.8 26-3.8 0-6.8 3.1-6.8 7 0 3.8 3.1 6.9 7 7 3.7-0.1 7 2.2 8.3 5.5-18.7-4.8-32.8-20.8-35-40.3 3.6-5.1 8.6-9.2 14.3-11.7z m28.8 39.3c1.2 0.1 2.4 0.2 3.6 0.2 5-0.1 9-4.1 9-9 0-5.1-4-9.1-9-9-3.9-0.1-7-3.2-7-7 0-4 3.1-7.1 7-7 12.7-0.1 23 10.2 23 23 0 11.6-8.8 21.3-20.1 22.8-0.5-5.5-2.9-10.3-6.5-14z"
        fill="#A1A1A1"
        ></path>
    <path
        d="M861 368.8c26.4 27.2 40 63.5 40 110.2 0 100.8-76.9 180-174 180-49.6 0-92.1-14.7-122.5-42.3-36.4-34.6-58.8-78.4-61.3-128.4 4-1.2 8.8-2.6 13.8-3.9 2.6-0.7 5.2-1.3 7.5-1.8 3 45 19 80.9 47.2 105.9C640.3 613.9 680.1 627 726 627c90.9 0 163-70.5 163-160 0-41.8-13.3-77-38.3-101.1-7.9-7.6-16.8-14-26.4-19.1 14.3 4.5 26.3 11.7 36.7 22zM576.3 480.4zM765 396z m-236 83c0 64.3 30.3 114.1 66 148 33.4 30.3 79.4 46 132 46 104.7 0 188-85.3 188-194 0-51.5-15.7-90.9-44-120-27.1-26.8-61.8-33.5-102-32-0.6 0.3-1.6 0.6-3 1-29.1 3.7-48 28.2-48 46-0.4 3.3-0.2 5.8 0 8 0.6 25.4 21.4 45.9 47 46 12.7-0.1 23-10.4 23-23 0-12.8-10.3-23.1-23-23-3.9-0.1-7 3-7 7 0 3.8 3.1 6.9 7 7 5-0.1 9 3.9 9 9 0 4.9-4 8.9-9 9-18.2-0.1-33-14.9-33-33 0-18.3 14.8-34.1 33-34 0.7-0.1 1.4-0.2 2 0 28.7-0.4 54.7 10.5 74 29 21.8 21 34 52.3 34 91 0 81.9-65.9 146-149 146-42.3 0-78.9-11.8-105-35-27.8-24.5-43-61.7-43-111 0-3.4-49 9.8-49 12z"
        fill="#1E1C1E"
        ></path>
    <path
        d="M370.2 754.5c-18.9 61.9 62.4 43.3 86.1 9.7 12.4-17.9 18.3-34.6 18.3-52.5 0-8.4 0.1-82.8 0.2-223.3h47.3c3.2 132.4 4 206 2.3 221.1-2.8 24.3-4.4 47.4-19.3 69.5-65.9 97.5-193.9 55.8-146.4-35 13-16.7 26.5-12.9 34.1-8.2 3.2 1.5 6.9 7.3 1.7 9.2-6.7 2.1-17.3-2-24.3 9.5z"
        fill="#D2D2D2"
        ></path>
    <path
        d="M385 794.2c-14.4 3.5-28.2 2.7-36-4.6-1.9-12.2 0.3-26.5 8-42.3 4.5-0.8 9.1-0.3 12.5-1.5 5.2-1.8 1.5-7.7-1.7-9.2-0.4-0.2-0.7-0.4-1.1-0.7 10.3-7.3 20.1-4.1 26.1-0.3 3.2 1.5 6.9 7.3 1.7 9.2-6.6 2.3-17.2-1.8-24.2 9.7-7.6 24.4 0.6 36.3 14.7 39.7z m89.8-304.9v-1h47.3c3.2 132.4 4 206 2.3 221.1-2.8 24.3-4.4 47.4-19.3 69.5-29.1 43-70.3 58.9-103.1 55.5 27.1-4.8 56.1-21.9 78.1-54.5 14.9-22.1 16.6-45.2 19.3-69.5 1.7-15 0.9-88.7-2.3-221.1h-22.3z"
        fill="#A1A1A1"
        ></path>
    <path
        d="M393.1 818.5c14.7 4.1 32.2 2.8 49.3-4.2 19.3-7.9 37-22.5 51-43.3 9.5-14.1 13-27.3 16-54.2 0.1-1.2 0.8-7.3 1-9 1.5-13.5 0.9-83-2.1-205.5h-19.7l-0.1 209.4c0 20.9-6.8 40.3-20.9 60.6-14.1 20.1-44.1 35.5-69.7 36.9-11.8 0.6-21.8-1.8-29.3-6.8 5.5 7.5 13.9 13.1 24.5 16.1z m-14.7-86.8c12.7-2.1 23.1 2.8 28.6 12.7 5.5 9.9 5 23.1-1.7 31-2.5 3-6.9 3.3-9.9 0.9-3-2.5-3.3-6.9-0.9-9.9 2.7-3.2 3-10.1 0.2-15.2-1.5-2.7-3.7-4.6-6.6-5.5-6 0.3-12.9 0.5-17.9 8.8-18.9 61.9 62.4 43.3 86.1 9.7 12.4-17.9 18.3-34.6 18.3-52.5l0.2-223.3h47.3c3.2 132.4 4 206 2.3 221.1-2.8 24.3-4.4 47.4-19.3 69.5-65.9 97.5-193.9 55.8-146.4-35 6.7-8.8 13.6-11.9 19.7-12.3z"
        fill="#1E1C1E"
        ></path>
    <path
        d="M501 493.6c6.9 76 15 129.7 24.3 161.2 13.8 42.9 45.9 79.6 91.5 105.9 90.7 52.4 205.6 20.3 259.9-73.8 25.8-44.6 31.8-86.6 21.8-125.9-10-36.8-36.8-59.9-72.4-78.8-0.6 0-1.7-0.3-3.1-0.6-27.1-11.3-55.7 0.4-64.6 15.8-2 2.7-3.1 4.9-4 6.9-12.2 22.3-4.4 50.4 17.8 63.3 11.1 6.3 25.1 2.5 31.4-8.4 6.4-11.1 2.6-25.1-8.4-31.4-3.3-2-7.6-0.9-9.6 2.6-1.9 3.3-0.7 7.5 2.6 9.6 4.4 2.4 5.8 7.9 3.3 12.3-2.4 4.2-7.9 5.7-12.3 3.3-15.8-9.2-21.2-29.4-12.1-45.1 9.1-15.8 29.8-22.1 45.6-12.9 0.7 0.3 1.3 0.5 1.7 1 25 14.1 42.2 36.5 49.7 62.1 8.4 29.1 3.4 62.3-16 95.8-40.9 70.9-130.1 93.4-202.1 51.8-36.7-21.1-56.5-49.7-67.5-82.9-7.9-23.4-15.2-71-21.8-128.6l-55.7-3.2z"
        fill="#D2D2D2"
        ></path>
    <path
        d="M759.4 724.3c-43 21.9-96.3 21.6-142.5-5.1-36.7-21.1-56.5-49.7-67.5-82.9-7.9-23.4-15.2-71-21.8-128.6l-25.3-1.4c-0.4-4.2-0.8-8.4-1.2-12.7l55.5 3.1c6.7 57.6 13.9 105.2 21.8 128.6 11.1 33.1 30.9 61.7 67.5 82.9 36.2 20.9 76.9 25.6 113.5 16.1z m99.2-178.1c-9-19.6-24.1-36.4-44.3-47.7-0.4-0.5-1.1-0.7-1.7-1-4.8-2.8-10.2-4.2-15.5-4.3h-0.1c-0.6 0-1.7-0.3-3.1-0.6-9.3-3.9-18.7-5.1-27.5-4.3 12.9-10.2 35.2-15.6 56.5-6.7 1.4 0.3 2.5 0.6 3.1 0.6 35.6 18.9 62.4 42 72.4 78.8 10 39.3 3.9 81.3-21.8 125.9-27 46.7-68.9 78.2-115.4 91.6 34.7-16.5 65.1-43.8 86.4-80.6 25.8-44.6 31.8-86.6 21.8-125.9-2.5-9.5-6.1-18-10.8-25.8z m-87.2-41.8c-1.6 1.8-3.1 3.8-4.4 6-5 8.7-5.6 18.9-2.4 27.7-3-0.9-6.4 0.3-8.1 3.2-1.9 3.3-0.7 7.5 2.6 9.6 3.7 2 5.3 6.2 4.2 10.1-14.3-13.6-18.9-34.9-10.7-53.3 5.8-2.8 12.4-4 18.8-3.3z m5.9 49.9c0.6 0.4 1.2 0.8 1.9 1.2 4.4 2.4 9.9 0.9 12.3-3.3 2.5-4.4 1-9.9-3.3-12.3-3.3-2-4.5-6.3-2.6-9.6 2-3.4 6.3-4.6 9.6-2.6 11.1 6.3 14.8 20.3 8.4 31.4-5.7 9.9-17.9 13.9-28.4 9.8 2.4-4.6 3-9.8 2.1-14.6z"
        fill="#A1A1A1"
        ></path>
    <path
        d="M516.5 508.5c6.4 66.5 13.9 114 22.2 142.1 12.6 39.1 42.1 73.1 85.1 97.9 84.2 48.6 190.5 18.6 240.8-68.7 23.3-40.4 29.7-78.6 20.4-115.3-3.9-14.2-10.7-26.4-20.8-37.5 5.7 9.2 10.2 19.2 13.3 29.7 9.6 33.4 3.6 70.5-17.3 106.7-44.7 77.5-142.5 102.4-221.3 56.9-37.4-21.5-60.7-51.4-73.8-90.5-7.3-21.6-14.1-61.7-21.1-119.8l-27.5-1.5zM501 493.6l55.5 3.1c6.7 57.6 13.9 105.2 21.8 128.6 11.1 33.1 30.9 61.7 67.5 82.9 72.1 41.6 161.2 19.1 202.1-51.8 19.4-33.5 24.4-66.7 16-95.8-7.5-25.7-24.6-48.1-49.7-62.1-0.4-0.5-1.1-0.7-1.7-1-15.8-9.2-36.5-2.9-45.6 12.9-9.1 15.7-3.6 35.9 12.1 45.1 4.4 2.4 9.9 0.9 12.3-3.3 2.5-4.4 1-9.9-3.3-12.3-3.3-2-4.5-6.3-2.6-9.6 2-3.4 6.3-4.6 9.6-2.6 11.1 6.3 14.8 20.3 8.4 31.4-6.3 10.9-20.4 14.7-31.4 8.4-22.2-12.9-30-41.1-17.8-63.3 0.9-2 2-4.3 4-6.9 8.9-15.4 37.5-27.1 64.6-15.8 1.4 0.3 2.5 0.6 3.1 0.6 35.6 18.9 62.4 42 72.4 78.8 10 39.3 3.9 81.3-21.8 125.9-54.3 94.1-169.2 126.2-259.9 73.8-45.6-26.3-77.7-62.9-91.5-105.9-9.1-31.4-17.2-85.2-24.1-161.1z"
        fill="#1E1C1E"
        ></path>
    <path
        d="M489 296h56c18.2 0 33 14.8 33 33v150c0 18.2-14.8 33-33 33h-56c-18.2 0-33-14.8-33-33V329c0-18.2 14.8-33 33-33z"
        fill="#FECD61"
        ></path>
    <path
        d="M534 453h33v48h-33z"
        fill="#E78A48"
        ></path>
    <path
        d="M469 453h25v48h-25z"
        fill="#FFEC65"
        ></path>
    <path
        d="M489 310c-10.5 0-19 8.5-19 19v150c0 10.5 8.5 19 19 19h56c10.5 0 19-8.5 19-19V329c0-10.5-8.5-19-19-19h-56z m0-14h56c18.2 0 33 14.8 33 33v150c0 18.2-14.8 33-33 33h-56c-18.2 0-33-14.8-33-33V329c0-18.2 14.8-33 33-33z"
        fill="#1E1C1E"
        ></path>
    <path
        d="M456 357.8c-30.8-18-53-50.7-53-96.7 0-73.5 71.9-153.1 114-153.1s114 79.6 114 153.1c0 46.1-22.2 78.8-53 96.7V429c0 18.2-14.8 33-33 33h-56c-18.2 0-33-14.8-33-33v-71.2z"
        fill="#CC7DB7"
        ></path>
    <path
        d="M495 423v-71.2c-30.8-18-52.7-44.3-52.7-90.4 0-55.1 41.3-124.3 79.3-150.1-6.9-3-1.6 0-7.5 0-42.1 0-105 76.6-105 150.1 0 46.1 22.2 78.8 53 96.7v71.2c0 18.2 14.8 33 33 33"
        fill="#EAA5C7"
        ></path>
    <path
        d="M533.4 420v-71.2c30.8-18 43-50.7 43-96.7 0-55.1-40.4-113.7-78.4-139.5 6.9-3 13.5-4.6 19.4-4.6 42.1 0 114 79.6 114 153.1 0 46.1-22.2 78.8-53 96.7V429c0 18.2-14.8 33-33 33h-12"
        fill="#9D456B"
        ></path>
    <path
        d="M463.1 345.7l6.9 4.1V429c0 10.5 8.5 19 19 19h56c10.5 0 19-8.5 19-19v-79.2l6.9-4.1c28.9-16.9 46.1-46.4 46.1-84.7 0-30.8-14.6-65.9-38.1-95.3-21.3-26.6-46.4-43.7-61.9-43.7s-40.6 17.1-61.9 43.7C431.6 195.2 417 230.3 417 261c0 38.4 17.1 67.8 46.1 84.7zM403 261.1c0-73.5 71.9-153.1 114-153.1s114 79.6 114 153.1c0 46.1-22.2 78.8-53 96.7V429c0 18.2-14.8 33-33 33h-56c-18.2 0-33-14.8-33-33v-71.2c-30.8-18-53-50.7-53-96.7z"
        fill="#1E1C1E"
        ></path>
    <path
        d="M431 337m-76 0a76 76 0 1 0 152 0 76 76 0 1 0-152 0Z"
        fill="#FFFFFF"
        ></path>
    <path
        d="M361 380.2c12.1 13.1 29.5 21.3 48.8 21.3 36.7 0 66.5-29.8 66.5-66.5s-29.8-66.5-66.5-66.5c-12.9 0-24.9 3.7-35.1 10 13.5-11.6 31-18.6 50.1-18.6 42.5 0 77 34.5 77 77s-34.5 77-77 77c-26.6 0.1-50-13.3-63.8-33.7z"
        fill="#E2DCCC"
        ></path>
    <path
        d="M431 347c-5.5 0-10-4.5-10-10s4.5-10 10-10 10 4.5 10 10-4.5 10-10 10z"
        fill="#1E1C1E"
        ></path>
    <path
        d="M431 420c-45.8 0-83-37.2-83-83s37.2-83 83-83 83 37.2 83 83-37.2 83-83 83z m0-14c38.1 0 69-30.9 69-69s-30.9-69-69-69-69 30.9-69 69 30.9 69 69 69z"
        fill="#1E1C1E"
        ></path>
    <path
        d="M612 337m-76 0a76 76 0 1 0 152 0 76 76 0 1 0-152 0Z"
        fill="#FFFFFF"
        ></path>
    <path
        d="M542 380.2c12.1 13.1 29.5 21.3 48.8 21.3 36.7 0 66.5-29.8 66.5-66.5s-29.8-66.5-66.5-66.5c-12.9 0-24.9 3.7-35.1 10 13.5-11.6 31-18.6 50.1-18.6 42.5 0 77 34.5 77 77s-34.5 77-77 77c-26.6 0.1-50-13.3-63.8-33.7z"
        fill="#E2DCCC"
        ></path>
    <path
        d="M612 347c-5.5 0-10-4.5-10-10s4.5-10 10-10 10 4.5 10 10-4.5 10-10 10z"
        fill="#1E1C1E"
        ></path>
    <path
        d="M612 420c-45.8 0-83-37.2-83-83s37.2-83 83-83 83 37.2 83 83-37.2 83-83 83z m0-14c38.1 0 69-30.9 69-69s-30.9-69-69-69-69 30.9-69 69 30.9 69 69 69z"
        fill="#1E1C1E"
        ></path>
    <path
        d="M355 392a19.5 15 0 1 0 39 0 19.5 15 0 1 0-39 0Z"
        fill="#E55D7E"
        ></path>
    <path
        d="M649 392a19.5 15 0 1 0 39 0 19.5 15 0 1 0-39 0Z"
        fill="#E55D7E"
        ></path>
    <path
        d="M478.9 155.8c2.9-2.6 7.3-2.3 9.9 0.5 2.6 2.9 2.3 7.3-0.5 9.9-8.5 7.6-15.8 21.1-21.6 40.6-1.1 3.7-5 5.8-8.7 4.7s-5.8-5-4.7-8.7c6.5-21.7 14.9-37.4 25.6-47zM459.1 230.9c-0.2 0.5-1.3 4.8-2.3 8.9-0.9 3.8-4.7 6.1-8.5 5.2-3.8-0.9-6.1-4.7-5.2-8.5 2.5-10.4 2.8-11.8 4.6-14 2.4-3 6.9-3.4 9.8-1 2.8 2.3 3.4 6.2 1.5 9.2 0.1 0.1 0.1 0.2 0.1 0.2z"
        fill="#FFFFFF"
        ></path>
</svg>