<?xml version="1.0" standalone="no"?><!DOCTYPE svg PUBLIC "-//W3C//DTD SVG 1.1//EN" "http://www.w3.org/Graphics/SVG/1.1/DTD/svg11.dtd">
<svg class="icon"
     viewBox="0 0 1024 1024"
     version="1.1"
     xmlns="http://www.w3.org/2000/svg"
     width="200"
     height="200">
    <path
        d="M2.168785 41.691608c0-6.333173 0-13.332995 9.333096-5.666523l33.332487 33.332487L29.501424 67.690948z"
        fill="#A38085"
        ></path>
    <path
        d="M252.829087 481.347112s-35.332436 74.998096-7.333147 114.663755h10.333071l59.998476-66.664974zM655.818855 750.006957l-105.663984-52.66533 8.999771 94.997588 9.333097 9.333097 98.330836-13.332995 5.666523-5.333198-16.666243-32.999162zM453.490659 238.353281s109.997207 3.999898 137.329846 24.332716l12.33302 16.999568V365.683382l-37.332385-14.33297zM1020.809587 779.006221l-0.999974-8.999772-198.661623-21.999441-31.665862 44.665532-44.665533 31.665863 21.999441 198.661622 8.999772 0.999975 95.997562-148.996217 148.996217-95.997562z"
        fill="#734F4D"
        ></path>
    <path
        d="M831.147736 834.338149a215.661191 215.661191 0 0 1-33.332487 27.999289l-7.333147 4.333223c-4.333223 1.999949-7.333147 2.333274-8.666446 0A450.988549 450.988549 0 0 0 602.153551 728.674165c-14.666294-6.333173-29.332589-12.99967-43.998883-20.332817l-3.999899-1.666624A1084.972452 1084.972452 0 0 1 266.495407 501.013279a1009.307706 1009.307706 0 0 1-205.32812-298.325759A1170.970268 1170.970268 0 0 1 7.501983 62.35775c0-3.999898-2.333274-7.999797-3.666574-11.999695s0-5.666523 0-8.666447l20.332817 20.332817a12.666345 12.666345 0 0 0 17.999543 0 12.666345 12.666345 0 0 0 0-15.666269l-33.332487-33.332487A69.664898 69.664898 0 0 1 68.833759 5.692522l5.666522 1.666624h1.666625c22.332766 7.333147 43.998883 14.999619 66.664974 23.666066l6.333172 3.333249 37.999035 16.332919 6.333173 2.666599 13.66632 6.666497h1.999949l17.999543 8.999771 12.99967 6.999823 18.999517 10.333071 24.999366 14.332969 7.666472 4.666548 19.999492 12.666345c9.666421 5.999848 18.999518 12.33302 28.332614 18.999518l9.666421 6.666497 10.333071 7.333147h1.666624l10.666396 7.999797 5.333198 3.999899 19.332843 14.999619 4.999873 6.333172 9.666421 7.666472 15.666269 12.99967 3.666573 2.999924 8.666447 7.666472 10.333071 8.999772 15.332944 13.999644 12.33302 11.333046 7.666472 7.333147 10.999721 10.666396 6.999822 6.999822 6.999822 6.999822 9.666422 9.999746 7.999796 8.666447 3.999899 4.333223 16.332919 18.332868 4.333223 4.999873 14.666294 17.332894 9.999746 12.33302c5.999848 7.666472 11.999695 14.999619 17.666218 22.666091l8.666447 11.66637v2.333274l2.999924 4.333224 6.666497 9.333096 14.33297 20.999467 2.666599 3.999898 16.999568 26.66599c8.666447 13.999645 16.999568 27.999289 24.999365 42.665583 3.333249 5.666523 6.333173 11.333046 9.333097 16.999569l9.333096 17.666218 6.999822 13.999644 1.999949 3.999899v3.333248l2.666599 5.999848c4.666548 9.999746 9.333096 19.999492 13.999645 29.665914l4.333223 9.999746 8.333122 16.666243 6.666497 12.33302q8.666447 15.666269 17.332894 30.332564l7.666472 12.33302A466.654818 466.654818 0 0 0 807.481671 734.340688l5.666522 6.333172a358.990885 358.990885 0 0 0 25.99934 24.999366l11.666371 9.666421c4.333223 3.666574 8.999771 6.999822 13.666319 10.333071s0 3.333249 0 6.333172l-2.333274 4.999874-3.333248 5.666522-1.99995 2.999924-2.333274 3.333249a243.327155 243.327155 0 0 1-23.332741 25.33269z"
        fill="#AD9999"
        ></path>
    <path
        d="M725.483753 610.010511c33.332487-6.999822 80.664619 24.66604 66.664974 50.332056s-40.332309-11.333046-48.332107-3.333249-18.332868-46.998807-18.332867-46.998807z"
        fill="#734F4D"
        ></path>
    <path
        d="M816.481442 847.671144c-16.999568 14.999619-31.332538 23.332741-34.999111 19.666167A450.988549 450.988549 0 0 0 602.153551 728.674165c-14.666294-6.333173-29.332589-12.99967-43.998883-20.332817l-3.999899-1.666624A1084.972452 1084.972452 0 0 1 266.495407 501.013279a1007.641082 1007.641082 0 0 1-205.32812-298.325759A1160.637197 1160.637197 0 0 1 7.501983 62.35775c0-3.999898-2.333274-7.999797-3.666574-11.999695s0-5.666523 0-8.666447l20.332817 20.332817a12.33302 12.33302 0 0 0 7.666472 3.666574c17.666218 23.666066 35.665761 47.998781 54.331954 71.998172a3064.25553 3064.25553 0 0 0 252.660251 285.659413 3329.248802 3329.248802 0 0 0 281.326191 251.660277l3.333248 2.666599 38.665685 29.999238a1488.962194 1488.962194 0 0 1 154.329415 139.996446z"
        fill="#CFBFC2"
        ></path>
    <path
        d="M168.83122 164.688485a133.329948 133.329948 0 0 1-107.663933 37.999035A1170.970268 1170.970268 0 0 1 7.501983 62.35775c0-3.999898-2.333274-7.999797-3.666574-11.999695s0-5.666523 0-8.666447l20.332817 20.332817a12.666345 12.666345 0 0 0 17.999543-17.999543l-33.332487-33.332487A56.998553 56.998553 0 0 1 52.834165 1.025974h6.666497L68.833759 5.692522l5.666522 1.666624h1.666625a1019.307452 1019.307452 0 0 1 133.329948 53.665305A134.996572 134.996572 0 0 1 202.163707 109.689882a133.329948 133.329948 0 0 1-33.332487 54.998603z"
        fill="#CFBFC2"
        ></path>
    <path
        d="M94.373727 60.520827m-9.648356 9.678715a13.66632 13.66632 0 1 0 19.296712-19.35743 13.66632 13.66632 0 1 0-19.296712 19.35743Z"
        fill="#333333"
        ></path>
    <path
        d="M140.165281 217.02049s86.664466 88.664415 72.331497 106.330633c-7.333147 8.999771-47.332132-7.666472-54.998604-23.666066A637.983801 637.983801 0 0 1 135.498733 230.686809z"
        fill="#734F4D"
        ></path>
</svg>